<?xml version="1.0" encoding="UTF-8" standalone="no"?>
<!-- Created with Inkscape (http://www.inkscape.org/) -->

<svg
   xmlns:dc="http://purl.org/dc/elements/1.1/"
   xmlns:cc="http://creativecommons.org/ns#"
   xmlns:rdf="http://www.w3.org/1999/02/22-rdf-syntax-ns#"
   xmlns:svg="http://www.w3.org/2000/svg"
   xmlns="http://www.w3.org/2000/svg"
   xmlns:sodipodi="http://sodipodi.sourceforge.net/DTD/sodipodi-0.dtd"
   xmlns:inkscape="http://www.inkscape.org/namespaces/inkscape"
   width="100%"
   height="100%"
   id="svg6502"
   version="1.1"
   inkscape:version="0.48.4 r9939"
   sodipodi:docname="logo.svg"
   preserveAspectRatio="xMinYMin meet"
   viewBox="0 0 780 140">
  <defs
     id="defs6504" />
  <sodipodi:namedview
     id="base"
     pagecolor="#ffffff"
     bordercolor="#666666"
     borderopacity="1.0"
     inkscape:pageopacity="0.0"
     inkscape:pageshadow="2"
     inkscape:zoom="1.4"
     inkscape:cx="423.63245"
     inkscape:cy="7.9177105"
     inkscape:document-units="px"
     inkscape:current-layer="layer1"
     showgrid="false"
     fit-margin-top="0"
     fit-margin-left="0"
     fit-margin-right="0"
     fit-margin-bottom="0"
     inkscape:window-width="1920"
     inkscape:window-height="1003"
     inkscape:window-x="-9"
     inkscape:window-y="-9"
     inkscape:window-maximized="1" />
  <metadata
     id="metadata6507">
    <rdf:RDF>
      <cc:Work
         rdf:about="">
        <dc:format>image/svg+xml</dc:format>
        <dc:type
           rdf:resource="http://purl.org/dc/dcmitype/StillImage" />
        <dc:title />
      </cc:Work>
    </rdf:RDF>
  </metadata>
  <g
     inkscape:label="Calque 1"
     inkscape:groupmode="layer"
     id="layer1"
     transform="translate(-72.33818,-3.5880941)">
    <text
       xml:space="preserve"
       style="font-size:12.55380249px;font-style:normal;font-variant:normal;font-weight:normal;font-stretch:normal;line-height:125%;letter-spacing:0px;word-spacing:0px;fill:#3a87ad;fill-opacity:1;stroke:none;font-family:Open Sans;-inkscape-font-specification:Open Sans"
       x="465.86725"
       y="61.56424"
       id="titreLogo"
       sodipodi:linespacing="125%"
       inkscape:label="titreLogo"><tspan
         sodipodi:role="line"
         id="tspan6512"
         x="465.86725"
         y="61.56424"
         style="font-size:70.30129242px;font-style:normal;font-variant:normal;font-weight:100;font-stretch:normal;text-align:center;line-height:125%;writing-mode:lr-tb;text-anchor:middle;fill:#3a87ad;fill-opacity:1;font-family:Open Sans;-inkscape-font-specification:'Open Sans Light, Light'">Anthony Bobenrieth</tspan></text>
    <g
       id="rightAccolade"
       inkscape:label="Accolade">
      <path
         d="m 795.83819,130.80238 4.85714,0 c 6.71425,-1e-5 11.0952,-1.04763 13.14285,-3.14286 2.04758,-2.09524 3.07139,-6.5 3.07143,-13.21428 l 0,-17.714287 c -4e-5,-7.428544 1.07139,-12.8333 3.21429,-16.214286 2.14281,-3.380912 5.85709,-5.714243 11.14286,-7 -5.23814,-1.190431 -8.94053,-3.476143 -11.10715,-6.857143 -2.1667,-3.380898 -3.25004,-8.809464 -3.25,-16.285714 l 0,-17.714286 c -4e-5,-6.714194 -1.02385,-11.118952 -3.07143,-13.214286 -2.04765,-2.095138 -6.4286,-3.142757 -13.14285,-3.142858 l -4.85714,0 0,-10.2142848 4.42857,0 c 11.8571,1.111e-4 19.78568,1.7501094 23.78571,5.2499998 3.99995,3.500102 5.99995,10.512001 6.00001,21.035715 l 0,17.142857 c -6e-5,7.142918 1.27374,12.071484 3.82142,14.785714 2.54755,2.714336 7.17851,4.071477 13.89286,4.071428 l 4.57142,0 0,10.214287 -4.57142,0 c -6.71435,3.8e-5 -11.34531,1.380989 -13.89286,4.142856 -2.54768,2.761938 -3.82148,7.738123 -3.82142,14.928572 l 0,17.071426 c -6e-5,10.5238 -2.00006,17.54761 -6.00001,21.07143 -4.00003,3.52379 -11.92861,5.2857 -23.78571,5.28571 l -4.42857,0 z"
         style="font-size:104.37838745px;font-style:normal;font-variant:normal;font-weight:normal;font-stretch:normal;text-align:start;line-height:125%;letter-spacing:0px;word-spacing:0px;writing-mode:lr-tb;text-anchor:start;fill:#3a87ad;fill-opacity:1;stroke:none;font-family:DejaVu Sans Mono;-inkscape-font-specification:DejaVu Sans Mono"
         id="path2997"
         inkscape:connector-curvature="0" />
    </g>
    <text
       xml:space="preserve"
       style="font-size:41.66998672px;font-style:normal;font-variant:normal;font-weight:normal;font-stretch:normal;line-height:125%;letter-spacing:0px;word-spacing:0px;fill:#000000;fill-opacity:1;stroke:none;font-family:Open Sans;-inkscape-font-specification:Open Sans"
       x="162.84085"
       y="116.23936"
       id="subLogo"
       sodipodi:linespacing="125%"
       inkscape:label="subLogo"><tspan
         sodipodi:role="line"
         id="tspan3791"
         x="162.84085"
         y="116.23936"
         style="fill:#000000;fill-opacity:0.25098041">//Développeur d'applications</tspan></text>
    <g
       id="leftAccolade"
       inkscape:label="Accolade">
      <path
         d="m 128.83822,130.80238 -4.85714,0 c -6.71425,-1e-5 -11.0952,-1.04763 -13.14285,-3.14286 -2.04758,-2.09524 -3.07139,-6.5 -3.07143,-13.21428 l 0,-17.714287 c 4e-5,-7.428544 -1.07139,-12.8333 -3.21429,-16.214286 -2.14281,-3.380912 -5.857094,-5.714243 -11.142858,-7 5.238141,-1.190431 8.940528,-3.476143 11.107148,-6.857143 2.1667,-3.380898 3.25004,-8.809464 3.25,-16.285714 l 0,-17.714286 c 4e-5,-6.714194 1.02385,-11.118952 3.07143,-13.214286 2.04765,-2.095138 6.4286,-3.142757 13.14285,-3.142858 l 4.85714,0 0,-10.2142848 -4.42857,0 c -11.8571,1.111e-4 -19.78568,1.7501094 -23.78571,5.2499998 -3.999947,3.500102 -5.999949,10.512001 -6.000005,21.035715 l 0,17.142857 c 5.6e-5,7.142918 -1.273749,12.071484 -3.821427,14.785714 -2.547552,2.714336 -7.17851,4.071477 -13.892859,4.071428 l -4.571422,0 0,10.214287 4.571422,0 c 6.714349,3.8e-5 11.345307,1.380989 13.892859,4.142856 2.547678,2.761938 3.821483,7.738123 3.821427,14.928572 l 0,17.071426 c 5.6e-5,10.5238 2.000058,17.54761 6.000005,21.07143 4.00003,3.52379 11.92861,5.2857 23.78571,5.28571 l 4.42857,0 z"
         style="font-size:104.37838745px;font-style:normal;font-variant:normal;font-weight:normal;font-stretch:normal;text-align:start;line-height:125%;letter-spacing:0px;word-spacing:0px;writing-mode:lr-tb;text-anchor:start;fill:#3a87ad;fill-opacity:1;stroke:none;font-family:DejaVu Sans Mono;-inkscape-font-specification:DejaVu Sans Mono"
         id="path2997-0"
         inkscape:connector-curvature="0" />
    </g>
  </g>
</svg>
